<?xml version="1.0" encoding="utf-8"?>
<!DOCTYPE svg PUBLIC "-//W3C//DTD SVG 1.1//EN" "http://www.w3.org/Graphics/SVG/1.1/DTD/svg11.dtd">
<svg version="1.1" xmlns="http://www.w3.org/2000/svg" xmlns:xlink="http://www.w3.org/1999/xlink" x="0px" y="0px" width="480px"
  height="360px" viewBox="0 0 480 360" enable-background="new 0 0 480 360" xml:space="preserve">
  <g id="Laptop_1_">
    <g id="Back">
      <rect x="90.75" y="19.75" fill="#F2F2F2" width="337.5" height="262.5"/>
    </g>
    <g id="Border">
      <path fill-rule="evenodd" clip-rule="evenodd" fill="#707070" d="M90.75,19.75v262.5h337.5V19.75H90.75z M409.5,263.5h-300v-225
        h300V263.5z"/>
    </g>
    <g id="Content">
      <path fill-rule="evenodd" clip-rule="evenodd" fill="#B2B2B2" d="M112.25,152.4375h70.3125v-24.375H112.25V152.4375z
        M186.3125,152.4375h70.3125v-24.375h-70.3125V152.4375z M260.375,152.4375h16.875v108.75h53.4375v-133.125H260.375V152.4375z
        M334.4375,128.0625v133.125H404.75v-133.125H334.4375z"/>
    </g>
    <g id="Header">
      <rect x="112.25" y="86.8125" fill="#B8D4DB" width="292.5" height="37.5"/>
    </g>
    <g id="Title">
      <rect x="112" y="71" fill="#FFCC00" width="196" height="12"/>
    </g>
  </g>
  <g id="Tablet_1_">
    <g id="Back">
      <rect x="16.25" y="151.25" fill="#F2F2F2" width="262.5" height="187.5"/>
    </g>
    <g id="Border_1_">
      <path fill-rule="evenodd" clip-rule="evenodd" fill="#707070" d="M16.25,151.25v187.5h262.5v-187.5H16.25z M241.25,320H35V170
        h206.25V320z M260,252.5c-4.1426,0-7.5-3.3574-7.5-7.5s3.3574-7.5,7.5-7.5s7.5,3.3574,7.5,7.5S264.1426,252.5,260,252.5z"/>
    </g>
    <g id="Content_1_">
      <path fill-rule="evenodd" clip-rule="evenodd" fill="#B2B2B2" d="M38.125,316.4375h63.75v-65.625h-63.75V316.4375z
        M105.625,316.4375h63.75v-65.625h-63.75V316.4375z M173.125,250.8125v65.625h63.75v-65.625H173.125z"/>
    </g>
    <g id="Header_1_">
      <rect x="38.125" y="209.5625" fill="#B8D4DB" width="198.75" height="37.5"/>
    </g>
    <g id="Title_1_">
      <rect x="38" y="194" fill="#FFCC00" width="133" height="12"/>
    </g>
  </g>
  <g id="Phone_1_">
    <g id="Back_1_">
      <path fill="#F2F2F2" d="M465.8125,196.8633c-0.125-0.6104-0.3135-1.1973-0.5508-1.7578s-0.5186-1.0957-0.8555-1.5938
        c-0.3369-0.499-0.7246-0.9707-1.1484-1.3945s-0.8838-0.7998-1.3828-1.1367s-1.0332-0.6299-1.5938-0.8672
        s-1.1475-0.4258-1.7578-0.5508s-1.251-0.1875-1.8984-0.1875h-56.25c-0.6475,0-1.2764,0.0625-1.8867,0.1875
        s-1.1973,0.3135-1.7578,0.5508s-1.0947,0.5303-1.5938,0.8672s-0.959,0.7129-1.3828,1.1367s-0.8115,0.8955-1.1484,1.3945
        c-0.3369,0.498-0.6299,1.0332-0.8672,1.5938s-0.4141,1.1475-0.5391,1.7578S391,198.1025,391,198.75v112.5
        c0,0.6465,0.0742,1.2764,0.1992,1.8867s0.3018,1.209,0.5391,1.7695s0.5303,1.083,0.8672,1.582
        c0.3369,0.498,0.7246,0.9707,1.1484,1.3945s0.8838,0.8115,1.3828,1.1484s1.0332,0.6182,1.5938,0.8555
        s1.1475,0.4258,1.7578,0.5508s1.2393,0.1875,1.8867,0.1875h56.25c0.6475,0,1.2881-0.0625,1.8984-0.1875
        s1.1973-0.3135,1.7578-0.5508s1.0947-0.5186,1.5938-0.8555s0.959-0.7246,1.3828-1.1484s0.8115-0.8965,1.1484-1.3945
        c0.3369-0.499,0.6182-1.0215,0.8555-1.582s0.4258-1.1592,0.5508-1.7695S466,311.8965,466,311.25v-112.5
        C466,198.1025,465.9375,197.4736,465.8125,196.8633z"/>
    </g>
    <g id="Border_2_">
      <path fill-rule="evenodd" clip-rule="evenodd" fill="#707070" d="M465.8125,196.8633c-0.125-0.6104-0.3135-1.1973-0.5508-1.7578
        s-0.5186-1.0957-0.8555-1.5938c-0.3369-0.499-0.7246-0.9707-1.1484-1.3945s-0.8838-0.7998-1.3828-1.1367
        s-1.0332-0.6299-1.5938-0.8672s-1.1475-0.4258-1.7578-0.5508s-1.251-0.1875-1.8984-0.1875h-56.25
        c-0.6475,0-1.2764,0.0625-1.8867,0.1875s-1.1973,0.3135-1.7578,0.5508s-1.0947,0.5303-1.5938,0.8672s-0.959,0.7129-1.3828,1.1367
        s-0.8115,0.8955-1.1484,1.3945c-0.3369,0.498-0.6299,1.0332-0.8672,1.5938s-0.4141,1.1475-0.5391,1.7578S391,198.1025,391,198.75
        v112.5c0,0.6465,0.0742,1.2764,0.1992,1.8867s0.3018,1.209,0.5391,1.7695s0.5303,1.083,0.8672,1.582
        c0.3369,0.498,0.7246,0.9707,1.1484,1.3945s0.8838,0.8115,1.3828,1.1484s1.0332,0.6182,1.5938,0.8555
        s1.1475,0.4258,1.7578,0.5508s1.2393,0.1875,1.8867,0.1875h56.25c0.6475,0,1.2881-0.0625,1.8984-0.1875
        s1.1973-0.3135,1.7578-0.5508s1.0947-0.5186,1.5938-0.8555s0.959-0.7246,1.3828-1.1484s0.8115-0.8965,1.1484-1.3945
        c0.3369-0.499,0.6182-1.0215,0.8555-1.582s0.4258-1.1592,0.5508-1.7695S466,311.8965,466,311.25v-112.5
        C466,198.1025,465.9375,197.4736,465.8125,196.8633z M456.6279,301.875h-56.25v-93.75h56.25V301.875z"/>
    </g>
    <g id="Content_2_">
      <rect x="404.125" y="260.625" fill="#B2B2B2" width="48.75" height="41.25"/>
    </g>
    <g id="Header_2_">
      <rect x="404.125" y="230.625" fill="#B8D4DB" width="48.75" height="26.25"/>
    </g>
    <g id="Title_2_">
      <rect x="404" y="218" fill="#FFCC00" width="33" height="9"/>
    </g>
  </g>
</svg>
